<svg width="500" height="500" viewBox="0 0 500 500" fill="none" xmlns="http://www.w3.org/2000/svg">
<rect width="500" height="500" fill="white"/>
<path fill-rule="evenodd" clip-rule="evenodd" d="M17.8725 16.8116C19.1999 15.2436 20.0002 13.2153 20.0002 11C20.0002 6.02944 15.9708 2 11.0002 2C6.02968 2 2.00024 6.02944 2.00024 11C2.00024 15.9706 6.02968 20 11.0002 20C13.2155 20 15.2439 19.1996 16.8119 17.8723L19.4699 20.5303C19.7628 20.8232 20.2377 20.8232 20.5306 20.5303C20.8235 20.2374 20.8235 19.7626 20.5306 19.4697L17.8725 16.8116ZM18.5002 11C18.5002 15.1421 15.1424 18.5 11.0002 18.5C6.85811 18.5 3.50024 15.1421 3.50024 11C3.50024 6.85786 6.85811 3.5 11.0002 3.5C15.1424 3.5 18.5002 6.85786 18.5002 11Z" fill="black"/>
<path fill-rule="evenodd" clip-rule="evenodd" d="M62 10.5C63.933 10.5 65.5 8.933 65.5 7C65.5 5.067 63.933 3.5 62 3.5C60.067 3.5 58.5 5.067 58.5 7C58.5 8.933 60.067 10.5 62 10.5ZM62 12C64.7614 12 67 9.76142 67 7C67 4.23858 64.7614 2 62 2C59.2386 2 57 4.23858 57 7C57 9.76142 59.2386 12 62 12Z" fill="black"/>
<path fill-rule="evenodd" clip-rule="evenodd" d="M59 15.75C56.6528 15.75 54.75 17.6528 54.75 20V21C54.75 21.4142 54.4142 21.75 54 21.75C53.5858 21.75 53.25 21.4142 53.25 21V20C53.25 16.8244 55.8244 14.25 59 14.25H65C68.1756 14.25 70.75 16.8244 70.75 20V21C70.75 21.4142 70.4142 21.75 70 21.75C69.5858 21.75 69.25 21.4142 69.25 21V20C69.25 17.6528 67.3472 15.75 65 15.75H59Z" fill="black"/>
<path fill-rule="evenodd" clip-rule="evenodd" d="M103.601 5.24752L108.068 0.805625C109.148 -0.268541 110.852 -0.268542 111.932 0.805625L116.399 5.24752H118.984C119.602 5.24752 120.077 5.81548 119.99 6.45029L118.498 17.2858C118.283 18.8432 116.998 20 115.482 20H104.518C103.002 20 101.717 18.8432 101.502 17.2858L100.01 6.45029C99.923 5.81548 100.398 5.24752 101.016 5.24752H103.601ZM109.122 1.94682C109.613 1.45856 110.387 1.45856 110.878 1.94682L114.198 5.24752H105.802L109.122 1.94682ZM101.601 6.82814L103.01 17.0623C103.117 17.841 103.76 18.4194 104.518 18.4194H115.482C116.24 18.4194 116.883 17.841 116.99 17.0623L118.399 6.82814H101.601Z" fill="black"/>
<circle cx="167.5" cy="17.5" r="17.5" fill="black"/>
<g clip-path="url(#clip0_613_335)">
<path d="M169.558 23.6457L169.542 16.8986L165.559 16.7645L165.084 23.4999C164.721 23.5649 164.45 23.8707 164.429 24.2391L163.97 28.3996C163.914 28.923 164.229 29.3811 164.652 29.3954L169.591 29.5592C170.016 29.5711 170.354 29.1423 170.34 28.6092L170.176 24.4423C170.186 24.0639 169.928 23.7311 169.559 23.6457L169.558 23.6457Z" fill="white"/>
<path d="M171.275 9.98931L164.668 9.75714C164.404 9.75007 164.157 9.62563 163.994 9.41825C163.656 8.96304 163.129 8.68808 162.562 8.67203C161.528 8.63843 160.662 9.44833 160.626 10.482L160.547 12.8189C160.515 13.8521 161.324 14.7172 162.357 14.755C162.922 14.7753 163.464 14.5376 163.833 14.1092C164.009 13.9127 164.265 13.8051 164.529 13.8164C164.676 13.8214 164.815 13.8844 164.915 13.9918C165.015 14.0991 165.069 14.242 165.064 14.389L165.017 15.7882L170.148 15.961L170.188 14.5494C170.192 14.403 170.255 14.264 170.362 14.1643C170.469 14.0645 170.612 14.0109 170.758 14.0165L174.771 14.1516L174.778 13.736C174.808 12.7757 174.457 11.8416 173.801 11.1391C173.144 10.4367 172.235 10.0236 171.275 9.98948L171.275 9.98931Z" fill="white"/>
</g>
<defs>
<clipPath id="clip0_613_335">
<rect width="22" height="22" fill="white" transform="translate(167.524 2.45239) rotate(46.9289)"/>
</clipPath>
</defs>
</svg>
