<svg width="500" height="500" viewBox="0 0 500 500" fill="none" xmlns="http://www.w3.org/2000/svg">
<path d="M40 20C40 8.9543 31.0457 0 20 0C8.9543 0 0 8.9543 0 20C0 29.9824 7.31367 38.2566 16.875 39.757V25.7813H11.7969V20H16.875V15.5938C16.875 10.5813 19.8609 7.8125 24.4293 7.8125C26.6168 7.8125 28.9062 8.20313 28.9062 8.20313V13.125H26.3844C23.9 13.125 23.125 14.6668 23.125 16.25V20H28.6719L27.7852 25.7813H23.125V39.757C32.6863 38.2566 40 29.9824 40 20Z" fill="black"/>
<g clip-path="url(#clip0_595_7)">
<path fill-rule="evenodd" clip-rule="evenodd" d="M120 0.833313C115.252 0.835776 110.66 2.51741 107.045 5.57752C103.429 8.63763 101.027 12.8767 100.266 17.5366C99.5053 22.1966 100.437 26.9737 102.893 31.0136C105.35 35.0535 109.171 38.0929 113.675 39.5883C114.668 39.7727 115.043 39.1569 115.043 38.6333C115.043 38.1097 115.023 36.5917 115.016 34.932C109.452 36.1339 108.277 32.5841 108.277 32.5841C107.369 30.279 106.058 29.6731 106.058 29.6731C104.243 28.4416 106.194 28.4646 106.194 28.4646C108.204 28.6062 109.26 30.5161 109.26 30.5161C111.042 33.5556 113.94 32.6763 115.079 32.1626C115.258 30.8751 115.778 29.9991 116.351 29.5019C111.906 29.0014 107.237 27.2956 107.237 19.6757C107.209 17.6995 107.947 15.7884 109.297 14.3378C109.091 13.8373 108.406 11.8154 109.492 9.06903C109.492 9.06903 111.171 8.53557 114.993 11.1074C118.271 10.216 121.73 10.216 125.008 11.1074C128.826 8.53557 130.502 9.06903 130.502 9.06903C131.592 11.8088 130.906 13.8307 130.701 14.3378C132.055 15.7886 132.794 17.7031 132.764 19.6823C132.764 27.3187 128.085 29.0014 123.633 29.492C124.349 30.1111 124.988 31.3196 124.988 33.1769C124.988 35.8376 124.965 37.978 124.965 38.6333C124.965 39.1635 125.326 39.7826 126.339 39.5883C130.843 38.0927 134.665 35.0528 137.122 31.0122C139.578 26.9716 140.509 22.1938 139.748 17.5334C138.986 12.873 136.582 8.6339 132.966 5.57432C129.349 2.51474 124.756 0.834215 120.007 0.833313H120Z" fill="black"/>
<path d="M107.574 29.3867C107.531 29.4855 107.372 29.5151 107.243 29.4459C107.114 29.3768 107.018 29.2484 107.064 29.1463C107.11 29.0442 107.266 29.0179 107.395 29.087C107.524 29.1562 107.624 29.2879 107.574 29.3867Z" fill="black"/>
<path d="M108.385 30.2856C108.317 30.32 108.238 30.3296 108.164 30.3128C108.089 30.2959 108.022 30.2538 107.975 30.1934C107.846 30.0551 107.819 29.8641 107.919 29.7785C108.018 29.6929 108.197 29.7324 108.326 29.8707C108.455 30.009 108.485 30.2 108.385 30.2856Z" fill="black"/>
<path d="M109.174 31.4283C109.051 31.5139 108.843 31.4283 108.727 31.2571C108.695 31.2264 108.669 31.1895 108.652 31.1488C108.634 31.1081 108.625 31.0643 108.625 31.02C108.625 30.9757 108.634 30.9319 108.652 30.8912C108.669 30.8504 108.695 30.8136 108.727 30.7829C108.849 30.7006 109.058 30.7829 109.174 30.9508C109.29 31.1188 109.293 31.3427 109.174 31.4283V31.4283Z" fill="black"/>
<path d="M110.243 32.5347C110.134 32.6566 109.912 32.6237 109.73 32.459C109.548 32.2944 109.505 32.0704 109.614 31.9519C109.723 31.8333 109.945 31.8663 110.134 32.0276C110.323 32.189 110.359 32.4162 110.243 32.5347V32.5347Z" fill="black"/>
<path d="M111.744 33.1802C111.694 33.3349 111.469 33.4041 111.244 33.3382C111.018 33.2724 110.869 33.0879 110.912 32.9299C110.955 32.7718 111.184 32.6994 111.412 32.7718C111.641 32.8443 111.787 33.0188 111.744 33.1802Z" fill="black"/>
<path d="M113.38 33.2921C113.38 33.4535 113.194 33.5918 112.956 33.5951C112.717 33.5983 112.522 33.4666 112.522 33.3053C112.522 33.1439 112.707 33.0056 112.946 33.0023C113.184 32.999 113.38 33.1275 113.38 33.2921Z" fill="black"/>
<path d="M114.903 33.0385C114.933 33.1999 114.767 33.3678 114.529 33.4074C114.29 33.4469 114.082 33.3514 114.052 33.1933C114.022 33.0353 114.194 32.864 114.426 32.8212C114.658 32.7784 114.873 32.8772 114.903 33.0385Z" fill="black"/>
</g>
<path d="M70 3.60156C75.3438 3.60156 75.9766 3.625 78.0781 3.71875C80.0313 3.80469 81.0859 4.13281 81.7891 4.40625C82.7188 4.76563 83.3906 5.20313 84.0859 5.89844C84.7891 6.60156 85.2188 7.26563 85.5781 8.19531C85.8516 8.89844 86.1797 9.96094 86.2656 11.9063C86.3594 14.0156 86.3828 14.6484 86.3828 19.9844C86.3828 25.3281 86.3594 25.9609 86.2656 28.0625C86.1797 30.0156 85.8516 31.0703 85.5781 31.7734C85.2188 32.7031 84.7813 33.375 84.0859 34.0703C83.3828 34.7734 82.7188 35.2031 81.7891 35.5625C81.0859 35.8359 80.0234 36.1641 78.0781 36.25C75.9688 36.3438 75.3359 36.3672 70 36.3672C64.6563 36.3672 64.0234 36.3438 61.9219 36.25C59.9688 36.1641 58.9141 35.8359 58.2109 35.5625C57.2813 35.2031 56.6094 34.7656 55.9141 34.0703C55.2109 33.3672 54.7813 32.7031 54.4219 31.7734C54.1484 31.0703 53.8203 30.0078 53.7344 28.0625C53.6406 25.9531 53.6172 25.3203 53.6172 19.9844C53.6172 14.6406 53.6406 14.0078 53.7344 11.9063C53.8203 9.95312 54.1484 8.89844 54.4219 8.19531C54.7813 7.26563 55.2188 6.59375 55.9141 5.89844C56.6172 5.19531 57.2813 4.76563 58.2109 4.40625C58.9141 4.13281 59.9766 3.80469 61.9219 3.71875C64.0234 3.625 64.6563 3.60156 70 3.60156ZM70 0C64.5703 0 63.8906 0.0234375 61.7578 0.117188C59.6328 0.210938 58.1719 0.554687 56.9063 1.04687C55.5859 1.5625 54.4688 2.24219 53.3594 3.35938C52.2422 4.46875 51.5625 5.58594 51.0469 6.89844C50.5547 8.17188 50.2109 9.625 50.1172 11.75C50.0234 13.8906 50 14.5703 50 20C50 25.4297 50.0234 26.1094 50.1172 28.2422C50.2109 30.3672 50.5547 31.8281 51.0469 33.0938C51.5625 34.4141 52.2422 35.5313 53.3594 36.6406C54.4688 37.75 55.5859 38.4375 56.8984 38.9453C58.1719 39.4375 59.625 39.7813 61.75 39.875C63.8828 39.9688 64.5625 39.9922 69.9922 39.9922C75.4219 39.9922 76.1016 39.9688 78.2344 39.875C80.3594 39.7813 81.8203 39.4375 83.0859 38.9453C84.3984 38.4375 85.5156 37.75 86.625 36.6406C87.7344 35.5313 88.4219 34.4141 88.9297 33.1016C89.4219 31.8281 89.7656 30.375 89.8594 28.25C89.9531 26.1172 89.9766 25.4375 89.9766 20.0078C89.9766 14.5781 89.9531 13.8984 89.8594 11.7656C89.7656 9.64063 89.4219 8.17969 88.9297 6.91406C88.4375 5.58594 87.7578 4.46875 86.6406 3.35938C85.5313 2.25 84.4141 1.5625 83.1016 1.05469C81.8281 0.5625 80.375 0.21875 78.25 0.125C76.1094 0.0234375 75.4297 0 70 0Z" fill="black"/>
<path d="M70 9.72656C64.3281 9.72656 59.7266 14.3281 59.7266 20C59.7266 25.6719 64.3281 30.2734 70 30.2734C75.6719 30.2734 80.2734 25.6719 80.2734 20C80.2734 14.3281 75.6719 9.72656 70 9.72656ZM70 26.6641C66.3203 26.6641 63.3359 23.6797 63.3359 20C63.3359 16.3203 66.3203 13.3359 70 13.3359C73.6797 13.3359 76.6641 16.3203 76.6641 20C76.6641 23.6797 73.6797 26.6641 70 26.6641Z" fill="black"/>
<path d="M83.0781 9.32026C83.0781 10.6484 82 11.7187 80.6797 11.7187C79.3516 11.7187 78.2812 10.6406 78.2812 9.32026C78.2812 7.99213 79.3594 6.92181 80.6797 6.92181C82 6.92181 83.0781 7.99994 83.0781 9.32026Z" fill="black"/>
<path d="M189.602 12.0001C189.602 12.0001 189.211 9.24225 188.008 8.03131C186.484 6.43756 184.781 6.42975 184 6.336C178.406 5.92975 170.008 5.92975 170.008 5.92975H169.992C169.992 5.92975 161.594 5.92975 156 6.336C155.219 6.42975 153.516 6.43756 151.992 8.03131C150.789 9.24225 150.406 12.0001 150.406 12.0001C150.406 12.0001 150 15.2422 150 18.4766V21.5079C150 24.7422 150.398 27.9844 150.398 27.9844C150.398 27.9844 150.789 30.7422 151.984 31.9532C153.508 33.5469 155.508 33.4922 156.398 33.6641C159.602 33.9688 170 34.0626 170 34.0626C170 34.0626 178.406 34.0469 184 33.6485C184.781 33.5547 186.484 33.5469 188.008 31.9532C189.211 30.7422 189.602 27.9844 189.602 27.9844C189.602 27.9844 190 24.7501 190 21.5079V18.4766C190 15.2422 189.602 12.0001 189.602 12.0001ZM165.867 25.1876V13.9454L176.672 19.586L165.867 25.1876Z" fill="black"/>
<defs>
<clipPath id="clip0_595_7">
<rect width="40" height="40" fill="white" transform="translate(100)"/>
</clipPath>
</defs>
</svg>
