<svg width="40" height="40" viewBox="0 0 40 40" fill="none" xmlns="http://www.w3.org/2000/svg">
<path d="M19.9998 0.799805C9.39581 0.799805 0.799805 9.39581 0.799805 19.9998C0.799805 30.6038 9.39581 39.1998 19.9998 39.1998C30.6038 39.1998 39.1998 30.6038 39.1998 19.9998C39.1998 9.39581 30.6038 0.799805 19.9998 0.799805ZM15.2998 27.9578H11.4118V15.4458H15.2998V27.9578ZM13.3318 13.9098C12.1038 13.9098 11.3098 13.0398 11.3098 11.9638C11.3098 10.8658 12.1278 10.0218 13.3818 10.0218C14.6358 10.0218 15.4038 10.8658 15.4278 11.9638C15.4278 13.0398 14.6358 13.9098 13.3318 13.9098ZM29.4998 27.9578H25.6118V21.0238C25.6118 19.4098 25.0478 18.3138 23.6418 18.3138C22.5678 18.3138 21.9298 19.0558 21.6478 19.7698C21.5438 20.0238 21.5178 20.3838 21.5178 20.7418V27.9558H17.6278V19.4358C17.6278 17.8738 17.5778 16.5678 17.5258 15.4438H20.9038L21.0818 17.1818H21.1598C21.6718 16.3658 22.9258 15.1618 25.0238 15.1618C27.5818 15.1618 29.4998 16.8758 29.4998 20.5598V27.9578V27.9578Z" fill="#3D445C"/>
</svg>
