<svg width="32" height="32" viewBox="0 0 32 32" fill="none" xmlns="http://www.w3.org/2000/svg">
<path d="M0 0H10V2H8V4H6V6H4V12H6V14H8V12H10V10H14V14H12V20H14V22H12V24H10V28H12V30H14V32H0V0Z"/>
<path d="M10 0H20V2H22V4H24V6H26V12H24V14H22V16H20V18H18V20H16V22H18V24H20V28H18V30H16V32H14V30H12V28H14V26H16V24H12V22H14V20H12V14H14V18H16V14H18V8H16V6H10V8H8V10H10V12H8V14H6V12H4V6H6V4H8V2H10V0Z" fill="#1A1A1A"/>
<path d="M20 0H32V32H16V30H18V28H20V24H18V22H16V20H18V18H20V16H22V14H24V12H26V6H24V4H22V2H20V0Z"/>
<path d="M10 6H16V8H10V6Z"/>
<path d="M8 8H10V10H8V8Z"/>
<path d="M10 8H16V14H14V10H10V8Z" fill="#1A1A1A"/>
<path d="M16 8H18V14H16V8Z"/>
<path d="M14 14H16V18H14V14Z"/>
<path d="M10 24H12V28H10V24Z" fill="#1A1A1A"/>
<path d="M12 24H16V26H14V28H12V24Z"/>
</svg>
