<svg width="32" height="32" viewBox="0 0 32 32" fill="none" xmlns="http://www.w3.org/2000/svg">
<path d="M0 0H16V4H18V0H32V16H28V18H32V32H18V28H16V32H0V18H4V16H0V0Z"/>
<path d="M16 0H18V4H16V0Z" fill="#1A1A1A"/>
<path d="M2 2H4V4H2V2Z" fill="#1A1A1A"/>
<path d="M28 2H30V4H28V2Z" fill="#1A1A1A"/>
<path d="M4 4H6V6H4V4Z" fill="#1A1A1A"/>
<path d="M26 4H28V6H26V4Z" fill="#1A1A1A"/>
<path d="M6 6H8V8H6V6Z" fill="#1A1A1A"/>
<path d="M12 6H20V8H12V6Z" fill="#1A1A1A"/>
<path d="M24 6H26V8H24V6Z" fill="#1A1A1A"/>
<path d="M10 8H12V10H10V8Z" fill="#1A1A1A"/>
<path d="M12 8H20V10H18V12H16V16H18V14H22V12H24V20H22V18H10V20H8V12H10V14H14V10H12V8Z"/>
<path d="M20 8H22V10H20V8Z" fill="#1A1A1A"/>
<path d="M8 10H10V12H8V10Z" fill="#1A1A1A"/>
<path d="M10 10H12V12H10V10Z"/>
<path d="M12 10H14V14H10V12H12V10Z" fill="#1A1A1A"/>
<path d="M18 10H20V12H22V14H18V16H16V12H18V10Z" fill="#1A1A1A"/>
<path d="M20 10H22V12H20V10Z"/>
<path d="M22 10H24V12H22V10Z" fill="#1A1A1A"/>
<path d="M6 12H8V20H6V12Z" fill="#1A1A1A"/>
<path d="M24 12H26V20H24V12Z" fill="#1A1A1A"/>
<path d="M0 16H4V18H0V16Z" fill="#1A1A1A"/>
<path d="M28 16H32V18H28V16Z" fill="#1A1A1A"/>
<path d="M10 18H22V20H18V22H14V20H10V18Z" fill="#1A1A1A"/>
<path d="M8 20H10V22H8V20Z" fill="#1A1A1A"/>
<path d="M10 20H14V22H18V20H22V22H20V24H12V22H10V20Z"/>
<path d="M22 20H24V22H22V20Z" fill="#1A1A1A"/>
<path d="M10 22H12V24H10V22Z" fill="#1A1A1A"/>
<path d="M20 22H22V24H20V22Z" fill="#1A1A1A"/>
<path d="M6 24H8V26H6V24Z" fill="#1A1A1A"/>
<path d="M12 24H20V26H12V24Z" fill="#1A1A1A"/>
<path d="M24 24H26V26H24V24Z" fill="#1A1A1A"/>
<path d="M4 26H6V28H4V26Z" fill="#1A1A1A"/>
<path d="M26 26H28V28H26V26Z" fill="#1A1A1A"/>
<path d="M2 28H4V30H2V28Z" fill="#1A1A1A"/>
<path d="M16 28H18V32H16V28Z" fill="#1A1A1A"/>
<path d="M28 28H30V30H28V28Z" fill="#1A1A1A"/>
</svg>
