<svg width="50" height="50" viewBox="0 0 50 50" fill="none" xmlns="http://www.w3.org/2000/svg">
<circle opacity="0.2" cx="13" cy="13" r="13" fill="white"/>
<path fill-rule="evenodd" clip-rule="evenodd" d="M10.3245 10.0833L12.8903 7.62439C13.5108 7.02976 14.4897 7.02976 15.1102 7.62439L17.676 10.0833H19.161C19.516 10.0833 19.7887 10.3977 19.7385 10.7492L18.8816 16.7475C18.7584 17.6096 18.02 18.25 17.1491 18.25H10.8513C9.98046 18.25 9.2421 17.6096 9.11893 16.7475L8.26203 10.7492C8.21183 10.3977 8.48451 10.0833 8.8395 10.0833H10.3245ZM13.4957 8.25613C13.7778 7.98584 14.2227 7.98584 14.5048 8.25613L16.4114 10.0833H11.5891L13.4957 8.25613ZM9.1758 10.9583L9.98514 16.6237C10.0467 17.0548 10.4159 17.375 10.8513 17.375H17.1491C17.5846 17.375 17.9538 17.0548 18.0153 16.6237L18.8247 10.9583H9.1758Z" fill="white"/>
<path fill-rule="evenodd" clip-rule="evenodd" d="M11.6669 12.5625C11.9085 12.5625 12.1044 12.7584 12.1044 13V15.3333C12.1044 15.575 11.9085 15.7708 11.6669 15.7708C11.4253 15.7708 11.2294 15.575 11.2294 15.3333V13C11.2294 12.7584 11.4253 12.5625 11.6669 12.5625Z" fill="white"/>
<path fill-rule="evenodd" clip-rule="evenodd" d="M14.0002 12.5625C14.2419 12.5625 14.4377 12.7584 14.4377 13V15.3333C14.4377 15.575 14.2419 15.7708 14.0002 15.7708C13.7586 15.7708 13.5627 15.575 13.5627 15.3333V13C13.5627 12.7584 13.7586 12.5625 14.0002 12.5625Z" fill="white"/>
<path fill-rule="evenodd" clip-rule="evenodd" d="M16.3336 12.5625C16.5752 12.5625 16.7711 12.7584 16.7711 13V15.3333C16.7711 15.575 16.5752 15.7708 16.3336 15.7708C16.092 15.7708 15.8961 15.575 15.8961 15.3333V13C15.8961 12.7584 16.092 12.5625 16.3336 12.5625Z" fill="white"/>
</svg>
